<?xml version="1.0"?><svg width="531.49603" height="531.49603" xmlns="http://www.w3.org/2000/svg">

 <metadata id="metadata7">image/svg+xml</metadata>
 <g>
  <title>Layer 1</title>
  <g id="layer1">
   <g id="g3959">
    <path fill="#002154" d="m9.17945,73.579956c21.115211,0 42.23042,-16 63.345628,-16c0.000305,0 0.000595,0 0.000885,0c21.114914,0.000427 42.229836,16 63.344765,16c0.00029,0 0.00058,0 0.00087,0c21.114929,-0.000427 42.229843,-16 63.344757,-16c0.00029,0 0.000595,0 0.000885,0c21.114914,0.000427 42.229828,16 63.344742,16c0.000305,0 0.00061,0 0.000885,0c21.114929,-0.000427 42.229858,-16 63.344757,-16c0.000305,0 0.00061,0 0.000885,0c21.114929,0.000427 42.229828,16 63.344757,16c0.000275,0 0.00058,0 0.000885,0c21.114899,-0.000427 42.229828,-16 63.344757,-16c0.000275,0 0.00058,0 0.000885,0c21.114899,0.000427 42.229828,16 63.344727,16c0,0.000183 0,0.000427 0,0.00061c0,7.721924 0,15.443848 0,23.165771c-0.000305,0 -0.000549,0 -0.000854,0c-21.114929,-0.000427 -42.229858,-16 -63.344757,-16c-0.000305,0 -0.00061,0 -0.000885,0c-21.114929,0.000488 -42.229828,16 -63.344757,16c-0.000305,0 -0.00061,0 -0.000885,0c-21.114929,-0.000427 -42.229828,-16 -63.344757,-16c-0.000275,0 -0.00058,0 -0.000885,0c-21.114899,0.000488 -42.229828,16 -63.344757,16c-0.000275,0 -0.00058,0 -0.000885,0c-21.114899,-0.000427 -42.229813,-16 -63.344742,-16c-0.00029,0 -0.00058,0 -0.00087,0c-21.114929,0.000488 -42.229843,16 -63.344757,16c-0.000305,0 -0.000595,0 -0.000885,0c-21.114922,-0.000427 -42.229843,-16 -63.344765,-16c-0.00029,0 -0.00058,0 -0.000877,0c-21.114922,0.000488 -42.22983,16 -63.34475,16c0,-0.000183 0,-0.000427 0,-0.00061c0,-7.721924 0,-15.443848 0,-23.165771c0,0 0,0 0,0" id="path3889"/>
    <path fill="#003380" d="m9.17945,114.771912c21.115211,0 42.23042,-16 63.345628,-16c0.000275,0 0.000534,0 0.000793,0c21.114952,0.000427 42.229897,16 63.344856,16c0.000259,0 0.000519,0 0.000778,0c21.11496,-0.000427 42.229904,-16 63.344849,-16c0.000259,0 0.000534,0 0.000793,0c21.11496,0.000427 42.229889,16 63.344833,16c0.000275,0 0.000549,0 0.000793,0c21.11496,-0.000427 42.229919,-16 63.344849,-16c0.000275,0 0.000549,0 0.000793,0c21.11496,0.000427 42.229889,16 63.344849,16c0.000244,0 0.000519,0 0.000793,0c21.114929,-0.000427 42.229889,-16 63.344849,-16c0.000244,0 0.000519,0 0.000793,0c21.114929,0.000427 42.229889,16 63.344818,16c0,0.000183 0,0.000366 0,0.00061c0,7.721924 0,15.443848 0,23.165771c-0.000244,0 -0.000549,0 -0.000793,0c-21.114929,-0.000366 -42.229889,-16 -63.344818,-16c-0.000275,0 -0.000549,0 -0.000793,0c-21.11496,0.000427 -42.229889,16 -63.344849,16c-0.000275,0 -0.000549,0 -0.000793,0c-21.11496,-0.000366 -42.229889,-16 -63.344849,-16c-0.000244,0 -0.000519,0 -0.000793,0c-21.114929,0.000427 -42.229889,16 -63.344849,16c-0.000244,0 -0.000519,0 -0.000793,0c-21.114944,-0.000366 -42.229874,-16 -63.344833,-16c-0.000259,0 -0.000519,0 -0.000778,0c-21.11496,0.000427 -42.229904,16 -63.344849,16c-0.000275,0 -0.000534,0 -0.000793,0c-21.114952,-0.000366 -42.229904,-16 -63.344856,-16c-0.000259,0 -0.000519,0 -0.000786,0c-21.114952,0.000427 -42.229893,16 -63.344842,16c0,-0.000183 0,-0.000366 0,-0.000549c0,-7.721985 0,-15.443909 0,-23.165833c0,0 0,0 0,0" id="path3891"/>
    <path fill="#0044aa" d="m9.17945,155.963928c21.115211,0 42.23042,-16 63.345628,-16c0.000244,0 0.000473,0 0.00071,0c21.114975,0.000366 42.22995,16 63.34494,16c0.000229,0 0.000458,0 0.000687,0c21.11499,-0.000366 42.229965,-16 63.34494,-16c0.000229,0 0.000473,0 0.000702,0c21.11499,0.000366 42.22995,16 63.344925,16c0.000244,0 0.000488,0 0.000702,0c21.11499,-0.000366 42.22998,-16 63.34494,-16c0.000244,0 0.000488,0 0.000702,0c21.11499,0.000366 42.22995,16 63.34494,16c0.000214,0 0.000458,0 0.000702,0c21.11496,-0.000366 42.22995,-16 63.34494,-16c0.000214,0 0.000458,0 0.000702,0c21.11496,0.000366 42.22995,16 63.34491,16c0,0.000183 0,0.000366 0,0.000488c0,7.721985 0,15.443909 0,23.165894c-0.000244,0 -0.000488,0 -0.000671,0c-21.115021,-0.000366 -42.22998,-16 -63.34494,-16c-0.000244,0 -0.000488,0 -0.000702,0c-21.11499,0.000366 -42.22998,16 -63.34494,16c-0.000244,0 -0.000488,0 -0.000702,0c-21.11499,-0.000366 -42.22995,-16 -63.34494,-16c-0.000214,0 -0.000458,0 -0.000702,0c-21.11496,0.000366 -42.22995,16 -63.34494,16c-0.000214,0 -0.000458,0 -0.000702,0c-21.114975,-0.000366 -42.229935,-16 -63.344925,-16c-0.000229,0 -0.000458,0 -0.000702,0c-21.114975,0.000366 -42.22995,16 -63.344925,16c-0.000244,0 -0.000473,0 -0.000702,0c-21.114983,-0.000366 -42.229965,-16 -63.344948,-16c-0.000229,0 -0.000465,0 -0.000694,0c-21.114983,0.000366 -42.229954,16 -63.344934,16c0,-0.000183 0,-0.000305 0,-0.000488c0,-7.721985 0,-15.443909 0,-23.165894c0,0 0,0 0,0" id="path3893"/>
    <path fill="#0054d4" d="m9.17945,197.155884c21.115211,0 42.23042,-16 63.345628,-16c0.000214,0 0.000412,0 0.000626,0c21.114998,0.000305 42.230019,16 63.345024,16c0.000198,0 0.000397,0 0.00061,0c21.115005,-0.000305 42.230026,-16 63.345016,-16c0.000214,0 0.000412,0 0.000626,0c21.115005,0.000305 42.230011,16 63.345001,16c0.000214,0 0.000427,0 0.000641,0c21.11499,-0.000305 42.230011,-16 63.345001,-16c0.000214,0 0.000427,0 0.000641,0c21.11499,0.000305 42.230011,16 63.345001,16c0.000214,0 0.000397,0 0.00061,0c21.11499,-0.000305 42.230011,-16 63.345032,-16c0.000214,0 0.000397,0 0.00061,0c21.11499,0.000305 42.230011,16 63.345001,16c0,0.000122 0,0.000305 0,0.000427c0,7.721985 0,15.44397 0,23.165955c-0.000183,0 -0.000427,0 -0.00061,0c-21.11499,-0.000305 -42.230011,-16 -63.345001,-16c-0.000214,0 -0.000427,0 -0.000641,0c-21.11499,0.000305 -42.230011,16 -63.345001,16c-0.000214,0 -0.000427,0 -0.00061,0c-21.115021,-0.000305 -42.230011,-16 -63.345032,-16c-0.000214,0 -0.000397,0 -0.00061,0c-21.11499,0.000305 -42.230011,16 -63.345032,16c-0.000214,0 -0.000397,0 -0.00061,0c-21.115005,-0.000305 -42.230011,-16 -63.345016,-16c-0.000198,0 -0.000412,0 -0.00061,0c-21.115005,0.000305 -42.230026,16 -63.345016,16c-0.000214,0 -0.000412,0 -0.000626,0c-21.115005,-0.000305 -42.230011,-16 -63.345024,-16c-0.000198,0 -0.000404,0 -0.00061,0c-21.115009,0.000305 -42.230017,16 -63.345017,16c0,-0.000122 0,-0.000305 0,-0.000427c0,-7.722046 0,-15.44397 0,-23.165955c0,0 0,0 0,0" id="path3895"/>
    <path fill="#0066ff" d="m9.17945,238.3479c21.115211,0 42.23042,-16 63.345628,-16c0.000183,0 0.000351,0 0.000534,0c21.115028,0.000244 42.23008,16 63.345116,16c0.000168,0 0.000336,0 0.000519,0c21.115036,-0.000244 42.230087,-16 63.345108,-16c0.000183,0 0.000351,0 0.000534,0c21.115036,0.000244 42.230072,16 63.345093,16c0.000183,0 0.000366,0 0.000549,0c21.115021,-0.000244 42.230072,-16 63.345093,-16c0.000183,0 0.000366,0 0.000549,0c21.115021,0.000244 42.230072,16 63.345093,16c0.000183,0 0.000336,0 0.000519,0c21.115021,-0.000244 42.230072,-16 63.345123,-16c0.000183,0 0.000336,0 0.000519,0c21.115021,0.000244 42.230072,16 63.345093,16c0,0.000122 0,0.000244 0,0.000366c0,7.722046 0,15.444031 0,23.166077c-0.000183,0 -0.000366,0 -0.000549,0c-21.11499,-0.000305 -42.230042,-16 -63.345062,-16c-0.000183,0 -0.000366,0 -0.000549,0c-21.115021,0.000244 -42.230072,16 -63.345093,16c-0.000183,0 -0.000366,0 -0.000549,0c-21.115021,-0.000305 -42.230042,-16 -63.345093,-16c-0.000183,0 -0.000336,0 -0.000519,0c-21.115021,0.000244 -42.230072,16 -63.345123,16c-0.000183,0 -0.000336,0 -0.000519,0c-21.115036,-0.000305 -42.230072,-16 -63.345108,-16c-0.000168,0 -0.000351,0 -0.000519,0c-21.115036,0.000244 -42.230087,16 -63.345108,16c-0.000183,0 -0.000351,0 -0.000534,0c-21.115036,-0.000305 -42.230072,-16 -63.345116,-16c-0.000168,0 -0.000351,0 -0.000519,0c-21.11504,0.000244 -42.23008,16 -63.345109,16c0,-0.000183 0,-0.000305 0,-0.000427c0,-7.722046 0,-15.444031 0,-23.166016c0,0 0,0 0,0" id="path3897"/>
    <path fill="#2a7fff" d="m9.17945,279.539856c21.115211,0 42.23042,-16 63.345628,-16c0.000153,0 0.000305,0 0.000443,0c21.115067,0.000183 42.230141,16 63.345207,16c0.000137,0 0.00029,0 0.000427,0c21.115067,-0.000244 42.230148,-16 63.3452,-16c0.000153,0 0.00029,0 0.000443,0c21.115067,0.000183 42.230133,16 63.345184,16c0.000153,0 0.000305,0 0.000458,0c21.115051,-0.000244 42.230133,-16 63.345184,-16c0.000153,0 0.000275,0 0.000427,0c21.115082,0.000183 42.230133,16 63.345184,16c0.000153,0 0.000305,0 0.000458,0c21.115051,-0.000244 42.230133,-16 63.345184,-16c0.000153,0 0.000305,0 0.000458,0c21.115051,0.000183 42.230133,16 63.345184,16c0,0.000122 0,0.000183 0,0.000305c0,7.722046 0,15.444031 0,23.166077c-0.000122,0 -0.000305,0 -0.000427,0c-21.115082,-0.000183 -42.230133,-16 -63.345215,-16c-0.000122,0 -0.000275,0 -0.000427,0c-21.115051,0.000244 -42.230133,16 -63.345215,16c-0.000122,0 -0.000275,0 -0.000427,0c-21.115051,-0.000183 -42.230133,-16 -63.345184,-16c-0.000153,0 -0.000305,0 -0.000458,0c-21.115051,0.000244 -42.230133,16 -63.345184,16c-0.000153,0 -0.000275,0 -0.000427,0c-21.115067,-0.000183 -42.230133,-16 -63.3452,-16c-0.000137,0 -0.00029,0 -0.000427,0c-21.115067,0.000244 -42.230148,16 -63.3452,16c-0.000153,0 -0.000305,0 -0.000443,0c-21.115067,-0.000183 -42.230133,-16 -63.345207,-16c-0.000137,0 -0.00029,0 -0.000435,0c-21.115063,0.000244 -42.230133,16 -63.345193,16c0,-0.000061 0,-0.000183 0,-0.000305c0,-7.722046 0,-15.444092 0,-23.166077c0,0 0,0 0,0" id="path3899"/>
    <path fill="#5599ff" d="m9.17945,320.731873c21.115211,0 42.23042,-16 63.345628,-16c0.000122,0 0.000244,0 0.000351,0c21.115105,0.000183 42.230202,16 63.345299,16c0.000107,0 0.000229,0 0.000336,0c21.115097,-0.000183 42.230209,-16 63.345291,-16c0.000122,0 0.000229,0 0.000351,0c21.115097,0.000183 42.230194,16 63.345276,16c0.000122,0 0.000244,0 0.000366,0c21.115082,-0.000183 42.230194,-16 63.345276,-16c0.000122,0 0.000244,0 0.000366,0c21.115082,0.000183 42.230194,16 63.345276,16c0.000122,0 0.000214,0 0.000336,0c21.115112,-0.000183 42.230194,-16 63.345306,-16c0.000122,0 0.000214,0 0.000336,0c21.115082,0.000183 42.230194,16 63.345276,16c0,0.000061 0,0.000183 0,0.000244c0,7.722046 0,15.444092 0,23.166138c-0.000122,0 -0.000244,0 -0.000366,0c-21.115051,-0.000122 -42.230164,-16 -63.345245,-16c-0.000122,0 -0.000244,0 -0.000366,0c-21.115082,0.000183 -42.230194,16 -63.345276,16c-0.000122,0 -0.000244,0 -0.000366,0c-21.115082,-0.000122 -42.230194,-16 -63.345276,-16c-0.000122,0 -0.000214,0 -0.000336,0c-21.115112,0.000183 -42.230194,16 -63.345306,16c-0.000122,0 -0.000214,0 -0.000336,0c-21.115097,-0.000122 -42.230194,-16 -63.345291,-16c-0.000107,0 -0.000229,0 -0.000351,0c-21.115082,0.000183 -42.230194,16 -63.345276,16c-0.000122,0 -0.000244,0 -0.000351,0c-21.115097,-0.000122 -42.230194,-16 -63.345299,-16c-0.000114,0 -0.000229,0 -0.000351,0c-21.115097,0.000183 -42.230186,16 -63.345277,16c0,-0.000061 0,-0.000122 0,-0.000244c0,-7.722107 0,-15.444092 0,-23.166138c0,0 0,0 0,0" id="path3901"/>
    <path fill="#80b3ff" d="m9.17945,361.923828c21.115211,0 42.23042,-16 63.345628,-16c0.000092,0 0.000183,0 0.000275,0c21.11512,0.000122 42.230247,16 63.345375,16c0.000076,0 0.000168,0 0.000259,0c21.115128,-0.000122 42.230255,-16 63.345367,-16c0.000092,0 0.000183,0 0.000259,0c21.115143,0.000122 42.230255,16 63.345367,16c0.000092,0 0.000183,0 0.000275,0c21.115112,-0.000122 42.230255,-16 63.345367,-16c0.000092,0 0.000183,0 0.000275,0c21.115112,0.000122 42.230255,16 63.345367,16c0.000092,0 0.000183,0 0.000244,0c21.115143,-0.000122 42.230286,-16 63.345398,-16c0.000092,0 0.000183,0 0.000244,0c21.115143,0.000122 42.230255,16 63.345367,16c0,0.000061 0,0.000122 0,0.000183c0,7.722046 0,15.444092 0,23.166199c-0.000061,0 -0.000183,0 -0.000244,0c-21.115143,-0.000122 -42.230255,-16 -63.345367,-16c-0.000092,0 -0.000183,0 -0.000275,0c-21.115112,0.000183 -42.230255,16 -63.345367,16c-0.000092,0 -0.000183,0 -0.000275,0c-21.115112,-0.000122 -42.230255,-16 -63.345367,-16c-0.000092,0 -0.000183,0 -0.000244,0c-21.115143,0.000183 -42.230255,16 -63.345398,16c-0.000092,0 -0.000183,0 -0.000244,0c-21.115143,-0.000122 -42.230255,-16 -63.345383,-16c-0.000092,0 -0.000168,0 -0.000259,0c-21.115128,0.000183 -42.230255,16 -63.345367,16c-0.000092,0 -0.000183,0 -0.000275,0c-21.11512,-0.000122 -42.23024,-16 -63.345375,-16c-0.000092,0 -0.000168,0 -0.000259,0c-21.11512,0.000183 -42.230247,16 -63.345368,16c0,-0.000061 0,-0.000122 0,-0.000183c0,-7.722107 0,-15.444153 0,-23.166199c0,0 0,0 0,0" id="path3903"/>
    <path fill="#aaccff" d="m9.17945,403.115845c21.115211,0 42.23042,-16.000061 63.345628,-16.000061c0.000061,0 0.000122,0 0.000183,0c21.11515,0.000122 42.230309,16.000061 63.345467,16.000061c0.000046,0 0.000107,0 0.000168,0c21.115158,-0.000122 42.230316,-16.000061 63.345459,-16.000061c0.000061,0 0.000122,0 0.000183,0c21.115158,0.000122 42.230301,16.000061 63.345444,16.000061c0.000061,0 0.000122,0 0.000183,0c21.115143,-0.000122 42.230316,-16.000061 63.345459,-16.000061c0.000061,0 0.000122,0 0.000183,0c21.115143,0.000122 42.230316,16.000061 63.345459,16.000061c0.000061,0 0.000122,0 0.000183,0c21.115143,-0.000122 42.230316,-16.000061 63.345459,-16.000061c0.000061,0 0.000122,0 0.000183,0c21.115143,0.000122 42.230286,16.000061 63.345428,16.000061c0,0.000061 0,0.000061 0,0.000122c0,7.722046 0,15.444153 0,23.16626c-0.000061,0 -0.000122,0 -0.000183,0c-21.115143,-0.000061 -42.230286,-16 -63.345428,-16c-0.000061,0 -0.000122,0 -0.000183,0c-21.115143,0.000122 -42.230316,16 -63.345459,16c-0.000061,0 -0.000122,0 -0.000183,0c-21.115143,-0.000061 -42.230316,-16 -63.345459,-16c-0.000061,0 -0.000122,0 -0.000183,0c-21.115143,0.000122 -42.230286,16 -63.345459,16c-0.000061,0 -0.000122,0 -0.000183,0c-21.115143,-0.000061 -42.230286,-16 -63.345444,-16c-0.000061,0 -0.000107,0 -0.000168,0c-21.115158,0.000122 -42.230316,16 -63.345459,16c-0.000061,0 -0.000122,0 -0.000183,0c-21.115158,-0.000061 -42.230316,-16 -63.345467,-16c-0.000061,0 -0.000107,0 -0.000168,0c-21.115158,0.000122 -42.23031,16 -63.34546,16c0,0 0,-0.000061 0,-0.000122c0,-7.722168 0,-15.444214 0,-23.16626c0,0 0,0 0,0" id="path3905"/>
    <path fill="#d5e5ff" d="m9.17945,444.3078c21.115211,0 42.23042,-16 63.345628,-16c0.000031,0 0.000061,0 0.000092,0c21.115181,0 42.23037,16 63.345558,16c0.000015,0 0.000046,0 0.000076,0c21.115189,-0.000061 42.230377,-16 63.345551,-16c0.000031,0 0.000061,0 0.000092,0c21.115189,0 42.230362,16 63.345535,16c0.000031,0 0.000061,0 0.000092,0c21.115173,-0.000061 42.230377,-16 63.345551,-16c0.000031,0 0.000061,0 0.000092,0c21.115173,0 42.230377,16 63.345551,16c0.000031,0 0.000061,0 0.000092,0c21.115173,-0.000061 42.230377,-16 63.345551,-16c0.000031,0 0.000061,0 0.000092,0c21.115173,0 42.230347,16 63.34552,16c0,0.000061 0,0.000061 0,0.000061c0,7.722107 0,15.444153 0,23.166321c0,0 -0.000061,0 -0.000061,0c-21.115204,0 -42.230377,-16 -63.345551,-16c-0.000031,0 -0.000061,0 -0.000092,0c-21.115173,0.000061 -42.230377,16 -63.345551,16c-0.000031,0 -0.000061,0 -0.000092,0c-21.115173,0 -42.230377,-16 -63.345551,-16c-0.000031,0 -0.000061,0 -0.000092,0c-21.115173,0.000061 -42.230347,16 -63.345551,16c-0.000031,0 -0.000061,0 -0.000092,0c-21.115173,0 -42.230347,-16 -63.345535,-16c-0.000031,0 -0.000061,0 -0.000092,0c-21.115173,0.000061 -42.230362,16 -63.345535,16c-0.000031,0 -0.000061,0 -0.000092,0c-21.115189,0 -42.230377,-16 -63.345558,-16c-0.000031,0 -0.000061,0 -0.000092,0c-21.115177,0.000061 -42.230356,16 -63.345536,16c0,0 0,0 0,-0.000061c0,-7.722168 0,-15.444214 0,-23.166321c0,0 0,0 0,0" id="path3907"/>
    <path fill="#00112a" d="m9.17945,32.387939c21.115211,0 42.23042,-16 63.345628,-16c0.000336,0 0.000648,0 0.000969,0c21.114891,0.000488 42.229782,16 63.344681,16c0.000305,0 0.000626,0 0.000961,0c21.114883,-0.000488 42.229782,-16 63.344666,-16c0.00032,0 0.000641,0 0.000977,0c21.114883,0.000488 42.229767,16 63.34465,16c0.000336,0 0.000641,0 0.000977,0c21.114868,-0.000488 42.229797,-16 63.344666,-16c0.000336,0 0.000641,0 0.000977,0c21.114868,0.000488 42.229767,16 63.344666,16c0.000305,0 0.000641,0 0.000977,0c21.114868,-0.000488 42.229767,-16 63.344666,-16c0.000305,0 0.000641,0 0.000977,0c21.114868,0.000488 42.229767,16 63.344635,16c0,0.000244 0,0.000488 0,0.000732c0,7.721863 0,15.443787 0,23.16571c-0.000305,0 -0.00061,0 -0.000977,0c-21.114868,-0.000549 -42.229767,-16 -63.344635,-16c-0.000336,0 -0.000641,0 -0.000977,0c-21.114868,0.000488 -42.229767,16 -63.344666,16c-0.000336,0 -0.000641,0 -0.000977,0c-21.114868,-0.000549 -42.229767,-16 -63.344666,-16c-0.000305,0 -0.000641,0 -0.000977,0c-21.114868,0.000488 -42.229767,16 -63.344666,16c-0.000305,0 -0.000641,0 -0.000946,0c-21.114899,-0.000549 -42.229782,-16 -63.344681,-16c-0.00032,0 -0.000641,0 -0.000961,0c-21.114883,0.000488 -42.229782,16 -63.344666,16c-0.00032,0 -0.000641,0 -0.000977,0c-21.114883,-0.000549 -42.229782,-16 -63.344673,-16c-0.00032,0 -0.000641,0 -0.000961,0c-21.114887,0.000488 -42.229776,16 -63.344666,16c0,-0.000244 0,-0.000488 0,-0.000732c0,-7.721924 0,-15.443787 0,-23.16571c0,0 0,0 0,0" id="path3887"/>
   </g>
  </g>
  <rect id="svg_1" height="259" width="529" y="0.003967" x="-0.496033" stroke-width="5" stroke="#ffffff" fill="#ffffff"/>
  <rect id="svg_2" height="206" width="526" y="306.003967" x="0.503967" stroke-width="5" stroke="#ffffff" fill="#ffffff"/>
 </g>
</svg>