<svg width="64" height="64" viewBox="0 0 64 64" version="1.1" xmlns="http://www.w3.org/2000/svg" xmlns:xlink="http://www.w3.org/1999/xlink">
<title>Frame 6.2</title>
<desc>Created using Figma</desc>
<g id="Canvas" transform="translate(-2830 -5351)">
<clipPath id="clip-0" clip-rule="evenodd">
<path d="M 2830 5351L 2894 5351L 2894 5415L 2830 5415L 2830 5351Z" fill="#FFFFFF"/>
</clipPath>
<g id="Frame 6.2" clip-path="url(#clip-0)">
<g id="Mask Group">
<mask id="mask0_alpha" mask-type="alpha">
<g id="Ellipse">
<use xlink:href="#path0_fill" transform="translate(2835.99 5356.99)" fill="#C4C4C4"/>
</g>
</mask>
<g id="Ellipse" mask="url(#mask0_alpha)">
<use xlink:href="#path0_fill" transform="translate(2841.88 5357.5)" fill="#D9F5FD"/>
</g>
</g>
<g id="Ellipse">
<mask id="mask1_outline_ins">
<use xlink:href="#path0_fill" fill="white" transform="translate(2835.99 5356.99)"/>
</mask>
<g mask="url(#mask1_outline_ins)">
<use xlink:href="#path1_stroke_2x" transform="translate(2835.99 5356.99)" fill="#102B7B"/>
</g>
</g>
<g id="Group 2">
<g id="Vector">
<use xlink:href="#path2_stroke" transform="translate(2849.97 5372.45)" fill="#102B7B"/>
</g>
<g id="Vector">
<use xlink:href="#path2_stroke" transform="translate(2867.28 5372.45)" fill="#102B7B"/>
</g>
</g>
<g id="Subtract">
<mask id="mask2_outline_ins">
<use xlink:href="#path3_fill" fill="white" transform="translate(2849.35 5384.98)"/>
</mask>
<g mask="url(#mask2_outline_ins)">
<use xlink:href="#path4_stroke_2x" transform="translate(2849.35 5384.98)" fill="#102B7B"/>
</g>
</g>
</g>
</g>
<defs>
<path id="path0_fill" d="M 52.023 26.0115C 52.023 40.3773 40.3773 52.023 26.0115 52.023C 11.6458 52.023 0 40.3773 0 26.0115C 0 11.6458 11.6458 0 26.0115 0C 40.3773 0 52.023 11.6458 52.023 26.0115Z"/>
<path id="path1_stroke_2x" d="M 50.523 26.0115C 50.523 39.5488 39.5488 50.523 26.0115 50.523L 26.0115 53.523C 41.2057 53.523 53.523 41.2057 53.523 26.0115L 50.523 26.0115ZM 26.0115 50.523C 12.4742 50.523 1.5 39.5488 1.5 26.0115L -1.5 26.0115C -1.5 41.2057 10.8173 53.523 26.0115 53.523L 26.0115 50.523ZM 1.5 26.0115C 1.5 12.4742 12.4742 1.5 26.0115 1.5L 26.0115 -1.5C 10.8173 -1.5 -1.5 10.8173 -1.5 26.0115L 1.5 26.0115ZM 26.0115 1.5C 39.5488 1.5 50.523 12.4742 50.523 26.0115L 53.523 26.0115C 53.523 10.8173 41.2057 -1.5 26.0115 -1.5L 26.0115 1.5Z"/>
<path id="path2_stroke" d="M -0.655388 1.51215C -0.856776 1.87412 -0.726606 2.3308 -0.364645 2.53219C -0.0026845 2.73358 0.454 2.60341 0.655388 2.24145L -0.655388 1.51215ZM 6.06408 2.1807C 6.23195 2.55938 6.675 2.73028 7.05368 2.56242C 7.43235 2.39455 7.60325 1.9515 7.43539 1.57282L 6.06408 2.1807ZM 0.655388 2.24145C 1.19817 1.26589 2.31966 0.741499 3.49068 0.750149C 4.67046 0.758863 5.67382 1.30032 6.06408 2.1807L 7.43539 1.57282C 6.73449 -0.00830108 5.07037 -0.738224 3.50176 -0.749811C 1.92439 -0.761462 0.216591 -0.0550798 -0.655388 1.51215L 0.655388 2.24145Z"/>
<path id="path3_fill" d="M 2.24416 0C 1.04872 0 0.108494 1.0507 0.453174 2.19538C 2.02707 7.42227 6.87785 11.23 12.6182 11.23C 18.3583 11.23 23.209 7.42227 24.7829 2.19538C 25.1276 1.0507 24.1874 0 22.9919 0L 2.24416 0Z"/>
<path id="path4_stroke_2x" d="M 24.7829 2.19538L 23.3466 1.76289L 24.7829 2.19538ZM 12.6182 9.72998C 7.55796 9.72998 3.27786 6.3737 1.88947 1.76289L -0.983124 2.62787C 0.776284 8.47084 6.19775 12.73 12.6182 12.73L 12.6182 9.72998ZM 23.3466 1.76289C 21.9582 6.37371 17.6781 9.72998 12.6182 9.72998L 12.6182 12.73C 19.0384 12.73 24.4598 8.47082 26.2192 2.62787L 23.3466 1.76289ZM 22.9919 -1.5L 2.24416 -1.5L 2.24416 1.5L 22.9919 1.5L 22.9919 -1.5ZM 26.2192 2.62787C 26.9107 0.331272 24.9862 -1.5 22.9919 -1.5L 22.9919 1.5C 23.1498 1.5 23.2626 1.56928 23.3172 1.63416C 23.3426 1.6644 23.3506 1.6874 23.3531 1.69856C 23.3548 1.70586 23.3584 1.72382 23.3466 1.76289L 26.2192 2.62787ZM 1.88947 1.76289C 1.87771 1.72382 1.8813 1.70586 1.88294 1.69856C 1.88545 1.6874 1.89345 1.6644 1.91889 1.63416C 1.97348 1.56928 2.08631 1.5 2.24416 1.5L 2.24416 -1.5C 0.249922 -1.5 -1.67466 0.331275 -0.983124 2.62787L 1.88947 1.76289Z"/>
</defs>
</svg>
