<svg width="64" height="64" viewBox="0 0 64 64" version="1.1" xmlns="http://www.w3.org/2000/svg" xmlns:xlink="http://www.w3.org/1999/xlink">
<title>Frame 6.4</title>
<desc>Created using Figma</desc>
<g id="Canvas" transform="translate(-2976 -5351)">
<clipPath id="clip-0" clip-rule="evenodd">
<path d="M 2976 5351L 3040 5351L 3040 5415L 2976 5415L 2976 5351Z" fill="#FFFFFF"/>
</clipPath>
<g id="Frame 6.4" clip-path="url(#clip-0)">
<g id="Mask Group">
<mask id="mask0_alpha" mask-type="alpha">
<g id="Group 2.4">
<g id="Union">
<use xlink:href="#path0_fill" transform="translate(2981.83 5360.62)" fill="#D4D4D4"/>
</g>
</g>
</mask>
<g id="Group 2.3" mask="url(#mask0_alpha)">
<g id="Union">
<use xlink:href="#path1_fill" transform="translate(2985.28 5361.08)" fill="#D9F5FD"/>
</g>
</g>
</g>
<g id="Mask Group">
<mask id="mask1_alpha" mask-type="alpha">
<g id="Union">
<use xlink:href="#path2_fill" transform="translate(2980.87 5397.34)" fill="#C4C4C4"/>
</g>
</mask>
<g id="Union" mask="url(#mask1_alpha)">
<use xlink:href="#path3_fill" transform="translate(2985.91 5398.62)" fill="#D9F5FD"/>
</g>
</g>
<g id="Group 2">
<g id="Union">
<mask id="mask2_outline_ins">
<use xlink:href="#path0_fill" fill="white" transform="translate(2980.83 5360.62)"/>
</mask>
<g mask="url(#mask2_outline_ins)">
<use xlink:href="#path4_stroke_2x" transform="translate(2980.83 5360.62)" fill="#102B7B"/>
</g>
</g>
</g>
<clipPath id="clip-1" clip-rule="evenodd">
<path d="M 2980.56 5369.66L 3035.15 5369.66L 3035.15 5407.32L 2980.56 5407.32L 2980.56 5369.66Z" fill="#FFFFFF"/>
</clipPath>
<g id="Group 2.3" clip-path="url(#clip-1)">
</g>
<g id="Vector">
<use xlink:href="#path5_stroke" transform="translate(3008.1 5368.4)" fill="#102B7B"/>
</g>
<g id="Union">
<mask id="mask3_outline_ins">
<use xlink:href="#path6_fill" fill="white" transform="translate(2980.87 5397.14)"/>
</mask>
<g mask="url(#mask3_outline_ins)">
<use xlink:href="#path7_stroke_2x" transform="translate(2980.87 5397.14)" fill="#102B7B"/>
</g>
</g>
</g>
</g>
<defs>
<path id="path0_fill" d="M 0 5.16595C 0 4.40228 0.891846 3.78509 1.6543 3.74408C 3.13062 3.66497 5.13477 3.01995 7.4126 2.28704C 13.6919 0.267025 22.05 -2.42243 27.1621 4.22699C 32.2742 -2.42243 40.6323 0.267025 46.9116 2.28704C 49.1895 3.01995 51.1936 3.66497 52.6699 3.74408C 53.4324 3.78509 54.3242 4.40228 54.3242 5.16595L 54.3242 41.0927C 54.3242 42.0859 53.5244 42.0336 52.8484 41.9892C 52.7876 41.9848 52.728 41.9809 52.6699 41.978C 51.1936 41.8989 49.1895 41.2538 46.9116 40.5209C 40.9177 38.5927 33.0293 36.0546 27.8787 41.6113C 27.5291 42.1656 26.7997 42.1729 26.4456 41.6113C 21.2949 36.0546 13.4065 38.5927 7.4126 40.5209C 5.13477 41.2538 3.13062 41.8989 1.6543 41.978C 1.59619 41.9809 1.53662 41.9848 1.47583 41.9892C 0.799805 42.0336 0 42.0859 0 41.0927L 0 5.16595Z"/>
<path id="path1_fill" d="M 0 4.7046C 0 3.94093 0.81875 3.32374 1.51871 3.28272C 2.87403 3.20362 4.71392 2.5586 6.80506 1.82569C 12.5697 -0.194328 17.9829 -1.94491 22.676 4.7045C 27.3691 -1.94491 37.2096 0.416293 43.0668 2.46918C 45.1579 3.20209 46.9978 3.20362 48.3531 3.28272C 49.0531 3.32374 49.8718 3.94093 49.8718 4.7046L 49.8718 40.6314C 49.8718 41.6245 49.1376 41.5723 48.517 41.5278C 48.4611 41.5234 48.4065 41.5195 48.3531 41.5166C 46.9978 41.4375 45.1579 40.7925 43.0668 40.0596C 37.5641 38.1314 28.0904 35.0747 23.3619 40.6314C 23.041 41.1857 22.3151 41.193 21.99 40.6314C 18.2703 36.2602 10.4761 36.9781 0 40.0596L 0 4.7046Z"/>
<path id="path2_fill" d="M 27.0116 9.97478C 27.0506 9.98015 27.0897 9.98211 27.129 9.98211L 27.129 9.94939C 27.3194 9.89324 27.4964 9.76482 27.6246 9.56316C 32.8248 4.00652 40.7892 6.54461 46.8407 8.47283L 46.8499 8.47576C 47.4376 8.66326 55.6061 11.2668 53.8167 8.15593C 53.3109 7.44939 53.6546 6.50847 53.9605 5.67156C 54.3192 4.69011 54.6256 3.85125 53.45 3.6989C 51.8644 3.49285 49.5282 2.93523 47.297 2.28826C 40.4715 0.308765 31.6402 -2.25227 27.0116 3.67058C 22.4273 -2.25227 13.68 0.308765 6.91978 2.28826C 4.70981 2.93523 2.39585 3.49285 0.825293 3.6989C -0.339258 3.85125 -0.0355473 4.69011 0.319677 5.67156C 0.622656 6.50847 0.963232 7.44939 0.462011 8.15593C -1.30972 11.2663 6.77598 8.66472 7.36191 8.47576L 7.37168 8.47283C 13.3656 6.54461 21.254 4.00652 26.4046 9.56316C 26.5311 9.76384 26.7054 9.89177 26.8932 9.94841L 26.8932 9.98211C 26.9327 9.98211 26.9723 9.98015 27.0116 9.97478Z"/>
<path id="path3_fill" d="M 22.4488 7.222C 27.6489 1.66536 40.7476 5.26574 46.7991 7.19396L 46.8084 7.19689C 47.4602 7.43606 49.261 4.57455 46.8084 3.12955C 39.983 1.15006 26.4769 -2.79317 21.8483 3.12968C 16.2335 -3.54069 0.00304614 3.26866 0.00304614 3.26866C 0.811138 4.15385 1.04406 6.12621 0.00288712 6.9767C -0.239677 7.40254 14.8661 1.0094 21.2288 7.222C 21.2969 7.33016 22.4215 7.2649 22.4488 7.222Z"/>
<path id="path4_stroke_2x" d="M 1.6543 3.74408L 1.57404 2.24622L 1.57372 2.24624L 1.6543 3.74408ZM 7.4126 2.28704L 6.95324 0.859112L 6.95316 0.859138L 7.4126 2.28704ZM 27.1621 4.22699L 25.9729 5.14123C 26.2569 5.51055 26.6963 5.72699 27.1621 5.72699C 27.628 5.72699 28.0674 5.51055 28.3513 5.14123L 27.1621 4.22699ZM 46.9116 2.28704L 47.3711 0.859138L 47.371 0.859112L 46.9116 2.28704ZM 52.6699 3.74408L 52.7505 2.24624L 52.7502 2.24622L 52.6699 3.74408ZM 52.8484 41.9892L 52.7402 43.4853L 52.75 43.486L 52.8484 41.9892ZM 52.6699 41.978L 52.5897 43.4758L 52.5944 43.4761L 52.6699 41.978ZM 46.9116 40.5209L 47.3711 39.093L 47.371 39.093L 46.9116 40.5209ZM 27.8787 41.6113L 26.7786 40.5916C 26.7157 40.6594 26.6592 40.7329 26.6099 40.8112L 27.8787 41.6113ZM 26.4456 41.6113L 27.7144 40.8112C 27.665 40.7329 27.6085 40.6594 27.5456 40.5916L 26.4456 41.6113ZM 7.4126 40.5209L 6.95324 39.093L 6.95316 39.093L 7.4126 40.5209ZM 1.6543 41.978L 1.72983 43.4761L 1.73455 43.4758L 1.6543 41.978ZM 1.47583 41.9892L 1.57421 43.486L 1.58398 43.4853L 1.47583 41.9892ZM 1.57372 2.24624C 0.95128 2.29951 0.105129 2.63263 -0.396416 3.0132C -0.930896 3.44123 -1.5 4.17605 -1.5 5.16595L 1.5 5.16595C 1.5 5.27493 1.46685 5.34864 1.45117 5.37588C 1.43815 5.39848 1.43998 5.38599 1.47887 5.35484C 1.51646 5.32474 1.56844 5.29375 1.62638 5.2708C 1.68547 5.24741 1.72511 5.24243 1.73487 5.24191L 1.57372 2.24624ZM 6.95316 0.859138C 4.59103 1.61917 2.80871 2.18007 1.57404 2.24622L 1.73455 5.24193C 3.45252 5.14988 5.6785 4.42074 7.87204 3.71495L 6.95316 0.859138ZM 28.3513 3.31274C 25.4281 -0.489492 21.5412 -1.59631 17.6851 -1.49349C 13.9594 -1.37897 10.0929 -0.150888 6.95324 0.859112L 7.87196 3.71498C 11.0116 2.70496 14.4639 1.5783 17.7651 1.50544C 20.9359 1.42089 23.784 2.29405 25.9729 5.14123L 28.3513 3.31274ZM 28.3513 5.14123C 30.5402 2.29405 33.3883 1.42089 36.5592 1.50544C 39.8604 1.5783 43.3126 2.70496 46.4523 3.71498L 47.371 0.859112C 44.2314 -0.150888 40.3649 -1.37897 36.6391 -1.49349C 32.783 -1.59631 28.8961 -0.489492 25.9729 3.31274L 28.3513 5.14123ZM 46.4522 3.71495C 48.6457 4.42074 50.8717 5.14988 52.5897 5.24193L 52.7502 2.24622C 51.5155 2.18007 49.7332 1.61917 47.3711 0.859138L 46.4522 3.71495ZM 52.5893 5.24191C 52.5991 5.24243 52.6388 5.24741 52.6978 5.2708C 52.7558 5.29375 52.8078 5.32474 52.8453 5.35484C 52.8842 5.38599 52.8861 5.39848 52.8731 5.37588C 52.8574 5.34864 52.8242 5.27493 52.8242 5.16595L 55.8242 5.16595C 55.8242 4.17605 55.2551 3.44123 54.7206 3.0132C 54.2191 2.63263 53.3729 2.29951 52.7505 2.24624L 52.5893 5.24191ZM 52.8242 5.16595L 52.8242 41.0927L 55.8242 41.0927L 55.8242 5.16595L 52.8242 5.16595ZM 52.8242 41.0927C 52.8242 41.1463 52.8133 41.025 52.9242 40.8512C 53.046 40.6603 53.2142 40.5623 53.3181 40.5237C 53.3955 40.495 53.4178 40.5057 53.3256 40.508C 53.2359 40.5103 53.1284 40.5044 52.9468 40.4924L 52.75 43.486C 52.9886 43.5016 53.7148 43.5763 54.3615 43.3364C 54.6802 43.2049 55.1875 42.8286 55.4532 42.4649C 55.7352 42.0229 55.8242 41.5357 55.8242 41.0927L 52.8242 41.0927ZM 52.9565 40.4931C 52.8907 40.4883 52.8149 40.4834 52.7455 40.4799L 52.5944 43.4761C 52.6412 43.4784 52.6844 43.4812 52.7402 43.4853L 52.9565 40.4931ZM 52.7502 40.4801C 51.5155 40.414 49.7332 39.8531 47.3711 39.093L 46.4522 41.9488C 48.6457 42.6546 50.8717 43.3838 52.5897 43.4758L 52.7502 40.4801ZM 47.371 39.093C 44.3741 38.1289 40.7163 36.9652 37.1595 36.7614C 33.506 36.565 29.7495 37.3865 26.7786 40.5916L 28.9788 42.631C 31.1585 40.2794 33.9215 39.5916 36.9984 39.7571C 40.1719 39.9153 43.4553 40.9847 46.4523 41.9489L 47.371 39.093ZM 7.87196 41.9489C 10.8689 40.9847 14.1524 39.9153 17.3258 39.7571C 20.4027 39.5916 23.1657 40.2794 25.3455 42.631L 27.5456 40.5916C 24.5748 37.3865 20.8182 36.565 17.1648 36.7614C 13.6079 36.9652 9.95017 38.1289 6.95324 39.093L 7.87196 41.9489ZM 1.73455 43.4758C 3.45252 43.3838 5.6785 42.6546 7.87204 41.9488L 6.95316 39.093C 4.59103 39.8531 2.80871 40.414 1.57404 40.4801L 1.73455 43.4758ZM 1.58398 43.4853C 1.63977 43.4812 1.68304 43.4784 1.72983 43.4761L 1.57876 40.4799C 1.50935 40.4834 1.43347 40.4883 1.36768 40.4931L 1.58398 43.4853ZM -1.5 41.0927C -1.5 41.5357 -1.41096 42.0229 -1.12899 42.4649C -0.863236 42.8286 -0.356002 43.2049 -0.0373325 43.3364C 0.609396 43.5763 1.3356 43.5016 1.57421 43.486L 1.37745 40.4924C 1.19584 40.5044 1.0883 40.5103 0.998583 40.508C 0.9064 40.5057 0.928733 40.495 1.00614 40.5237C 1.11006 40.5623 1.27826 40.6603 1.40006 40.8512C 1.51093 41.025 1.5 41.1463 1.5 41.0927L -1.5 41.0927ZM -1.5 5.16595L -1.5 41.0927L 1.5 41.0927L 1.5 5.16595L -1.5 5.16595ZM 25.1767 42.4113C 26.1261 43.9168 28.2162 43.8883 29.1475 42.4113L 26.6099 40.8112C 26.6959 40.6747 26.8921 40.5307 27.1588 40.5298C 27.4291 40.5289 27.6287 40.6753 27.7144 40.8112L 25.1767 42.4113Z"/>
<path id="path5_stroke" d="M 0.75 0C 0.75 -0.414214 0.414214 -0.75 0 -0.75C -0.414214 -0.75 -0.75 -0.414214 -0.75 0L 0.75 0ZM -0.75 28.7438C -0.75 29.158 -0.414214 29.4938 0 29.4938C 0.414214 29.4938 0.75 29.158 0.75 28.7438L -0.75 28.7438ZM -0.75 0L -0.75 28.7438L 0.75 28.7438L 0.75 0L -0.75 0Z"/>
<path id="path6_fill" d="M 27.3644 9.76356C 27.5304 9.76356 27.6902 9.69229 27.8064 9.57372C 33.0091 4.26564 40.8593 6.76734 46.8407 8.67323L 46.8499 8.67616C 47.4376 8.86366 55.6061 11.4672 53.8167 8.35634C 53.3109 7.64979 53.6546 6.70888 53.9605 5.87196C 54.3192 4.89052 54.6256 4.05165 53.45 3.89931C 51.8644 3.69325 49.5282 3.13564 47.297 2.48866C 40.4715 0.509172 31.7577 -2.40431 27.129 3.51854C 22.5448 -2.40431 13.68 0.509172 6.91978 2.48866C 4.70981 3.13564 2.39585 3.69325 0.825293 3.89931C -0.339258 4.05165 -0.0355473 4.89052 0.319677 5.87196C 0.622656 6.70888 0.963232 7.64979 0.462011 8.35634C -1.30972 11.4667 6.77598 8.86513 7.36191 8.67616L 7.37168 8.67323C 13.2954 6.7676 21.0694 4.2663 26.2225 9.5716C 26.3389 9.69141 26.4996 9.76356 26.6666 9.76356L 27.3644 9.76356Z"/>
<path id="path7_stroke_2x" d="M 46.8407 8.67323L 46.3853 10.1024L 46.389 10.1036L 46.8407 8.67323ZM 46.8499 8.67616L 47.3059 7.24713L 47.3016 7.24579L 46.8499 8.67616ZM 53.8167 8.35634L 55.117 7.60845C 55.0922 7.56537 55.0653 7.52354 55.0364 7.48313L 53.8167 8.35634ZM 53.9605 5.87196L 55.3694 6.38692L 55.3694 6.3868L 53.9605 5.87196ZM 53.45 3.89931L 53.2568 5.3868L 53.2573 5.38687L 53.45 3.89931ZM 47.297 2.48866L 46.8792 3.9293L 46.8792 3.92932L 47.297 2.48866ZM 27.129 3.51854L 25.9428 4.43665C 26.2261 4.80271 26.6626 5.01745 27.1255 5.01854C 27.5884 5.01962 28.0259 4.80692 28.3109 4.44218L 27.129 3.51854ZM 6.91978 2.48866L 7.34122 3.92824L 7.3413 3.92822L 6.91978 2.48866ZM 0.825293 3.89931L 1.01986 5.38664L 1.02042 5.38656L 0.825293 3.89931ZM 0.319677 5.87196L -1.09078 6.38247L -1.09074 6.38256L 0.319677 5.87196ZM 0.462011 8.35634L -0.76141 7.48844C -0.790121 7.52892 -0.816806 7.57079 -0.841366 7.6139L 0.462011 8.35634ZM 7.36191 8.67616L 6.93089 7.23942C 6.92107 7.24237 6.91127 7.24542 6.90151 7.24856L 7.36191 8.67616ZM 7.37168 8.67323L 7.8027 10.11C 7.81218 10.1071 7.82162 10.1042 7.83104 10.1012L 7.37168 8.67323ZM 26.2225 9.5716L 25.1465 10.6167L 26.2225 9.5716ZM 27.8064 9.57372L 28.8777 10.6237L 27.8064 9.57372ZM 47.2961 7.24403C 44.3054 6.29109 40.6665 5.14371 37.1207 4.92089C 33.488 4.70453 29.7376 5.46047 26.7352 8.52375L 28.8777 10.6237C 31.0779 8.37889 33.8539 7.73164 36.9423 7.91558C 40.1176 8.09307 43.3946 9.14948 46.3853 10.1024L 47.2961 7.24403ZM 47.3016 7.24579L 47.2924 7.24286L 46.389 10.1036L 46.3983 10.1065L 47.3016 7.24579ZM 52.5165 9.10422C 52.6734 9.37695 52.5173 9.25751 52.5952 8.92707C 52.6997 8.48303 53.0415 8.33957 53.0527 8.3355C 53.141 8.29177 52.8819 8.37978 52.5684 8.37411C 52.2344 8.37235 51.8845 8.33617 51.4485 8.26992C 49.6735 8.00688 47.5995 7.34082 47.3059 7.24714L 46.394 10.1052C 46.688 10.199 48.9921 10.9285 51.0009 11.2363C 51.9238 11.3756 53.1534 11.4913 54.0786 11.1546C 54.6132 10.9601 55.3042 10.5111 55.5153 9.61477C 55.6996 8.83201 55.4075 8.11344 55.117 7.60845L 52.5165 9.10422ZM 52.5517 5.35701C 52.3987 5.77552 52.1903 6.36978 52.0992 6.95166C 52.0075 7.59605 52.0378 8.44838 52.5971 9.22955L 55.0364 7.48313C 55.1049 7.49121 55.0229 7.62368 55.0693 7.37442C 55.104 7.13064 55.2044 6.83837 55.3694 6.38692L 52.5517 5.35701ZM 53.2573 5.38687C 53.3945 5.40466 53.2643 5.41765 53.0846 5.25927C 52.9885 5.17461 52.9083 5.06628 52.8542 4.94584C 52.8027 4.83098 52.7883 4.73548 52.7845 4.68333C 52.7788 4.60354 52.7966 4.6094 52.752 4.76997C 52.7103 4.92032 52.6465 5.09767 52.5517 5.35713L 55.3694 6.3868C 55.501 6.02685 55.831 5.21485 55.7767 4.46612C 55.7418 3.98562 55.5533 3.43607 55.0678 3.00831C 54.6261 2.61913 54.0933 2.47013 53.6428 2.41175L 53.2573 5.38687ZM 46.8792 3.92932C 49.1451 4.58589 51.5932 5.16854 53.2568 5.3868L 53.6433 2.41182C 52.1355 2.21796 49.9113 1.68539 47.7147 1.04801L 46.8792 3.92932ZM 28.3109 4.44218C 30.1971 2.0286 32.9374 1.31829 36.2916 1.53704C 39.7234 1.75005 43.4501 2.9347 46.8792 3.9293L 47.7148 1.04803C 44.3184 0.0631327 40.2755 -1.19871 36.4868 -1.4566C 32.6206 -1.70874 28.6896 -0.914375 25.9471 2.5949L 28.3109 4.44218ZM 28.3152 2.60043C 25.5916 -0.918477 21.6255 -1.70814 17.7434 -1.45664C 13.9316 -1.19898 9.86499 0.0633512 6.49825 1.04911L 7.3413 3.92822C 10.7348 2.93449 14.4807 1.75033 17.9374 1.53709C 21.3238 1.31769 24.0822 2.03271 25.9428 4.43665L 28.3152 2.60043ZM 6.49833 1.04909C 4.32328 1.6863 2.1222 2.21843 0.630167 2.41205L 1.02042 5.38656C 2.6695 5.16808 5.09635 4.58498 7.34122 3.92824L 6.49833 1.04909ZM 0.630724 2.41198C 0.180724 2.47085 -0.351477 2.62128 -0.791871 3.013C -1.27431 3.44212 -1.45936 3.99077 -1.49358 4.46728C -1.54708 5.2123 -1.2215 6.02129 -1.09078 6.38247L 1.73013 5.36146C 1.63624 5.10205 1.57286 4.9243 1.53137 4.77341C 1.48712 4.61246 1.50427 4.60481 1.49872 4.68217C 1.49507 4.73289 1.48118 4.82706 1.43057 4.94091C 1.37747 5.06039 1.29818 5.16899 1.20196 5.25458C 1.02104 5.41549 0.887586 5.40394 1.01986 5.38664L 0.630724 2.41198ZM -1.09074 6.38256C -0.927408 6.83375 -0.827477 7.12713 -0.792892 7.37244C -0.746873 7.62334 -0.830073 7.49817 -0.76141 7.48844L 1.68543 9.22423C 2.23866 8.44438 2.26819 7.59526 2.17773 6.95364C 2.08774 6.37295 1.88159 5.77984 1.7301 5.36136L -1.09074 6.38256ZM -0.841366 7.6139C -1.12924 8.11929 -1.41613 8.83394 -1.23512 9.61111C -1.02738 10.503 -0.344293 10.9554 0.192466 11.1529C 1.11579 11.4925 2.34019 11.3755 3.25363 11.2364C 5.24478 10.9284 7.52889 10.1984 7.82231 10.1038L 6.90151 7.24856C 6.609 7.3429 4.55729 8.00819 2.80205 8.27058C 2.37107 8.33668 2.02673 8.37262 1.69744 8.37428C 1.38888 8.37994 1.14389 8.29447 1.22809 8.33727C 1.2468 8.34416 1.58429 8.49099 1.68668 8.93057C 1.76234 9.25541 1.61033 9.37098 1.76539 9.09877L -0.841366 7.6139ZM 7.79294 10.1129L 7.8027 10.11L 6.94066 7.23649L 6.93089 7.23942L 7.79294 10.1129ZM 7.83104 10.1012C 10.7929 9.14834 14.0349 8.09289 17.1762 7.91561C 20.2282 7.73187 22.9705 8.37644 25.1465 10.6167L 27.2985 8.52649C 24.3214 5.46147 20.6002 4.70404 16.9959 4.92103C 13.481 5.14447 9.87414 6.29249 6.91232 7.2453L 7.83104 10.1012ZM 27.3644 8.26356L 26.6666 8.26356L 26.6666 11.2636L 27.3644 11.2636L 27.3644 8.26356ZM 25.1465 10.6167C 25.5273 11.0087 26.069 11.2636 26.6666 11.2636L 26.6666 8.26356C 26.9302 8.26356 27.1505 8.37409 27.2985 8.52649L 25.1465 10.6167ZM 26.7352 8.52375C 26.8832 8.37274 27.1025 8.26356 27.3644 8.26356L 27.3644 11.2636C 27.9583 11.2636 28.4972 11.0118 28.8777 10.6237L 26.7352 8.52375Z"/>
</defs>
</svg>
