<svg xmlns="http://www.w3.org/2000/svg" viewBox="0 0 1440 320"><path fill="#f3f4f5" fill-opacity="1" d="M0,128L6.2,138.7C12.3,149,25,171,37,170.7C49.2,171,62,149,74,133.3C86.2,117,98,107,111,106.7C123.1,107,135,117,148,149.3C160,181,172,235,185,224C196.9,213,209,139,222,112C233.8,85,246,107,258,128C270.8,149,283,171,295,197.3C307.7,224,320,256,332,261.3C344.6,267,357,245,369,224C381.5,203,394,181,406,186.7C418.5,192,431,224,443,213.3C455.4,203,468,149,480,144C492.3,139,505,181,517,208C529.2,235,542,245,554,240C566.2,235,578,213,591,181.3C603.1,149,615,107,628,117.3C640,128,652,192,665,224C676.9,256,689,256,702,256C713.8,256,726,256,738,240C750.8,224,763,192,775,154.7C787.7,117,800,75,812,53.3C824.6,32,837,32,849,53.3C861.5,75,874,117,886,165.3C898.5,213,911,267,923,277.3C935.4,288,948,256,960,245.3C972.3,235,985,245,997,234.7C1009.2,224,1022,192,1034,170.7C1046.2,149,1058,139,1071,112C1083.1,85,1095,43,1108,37.3C1120,32,1132,64,1145,69.3C1156.9,75,1169,53,1182,85.3C1193.8,117,1206,203,1218,218.7C1230.8,235,1243,181,1255,160C1267.7,139,1280,149,1292,149.3C1304.6,149,1317,139,1329,165.3C1341.5,192,1354,256,1366,234.7C1378.5,213,1391,107,1403,101.3C1415.4,96,1428,192,1434,240L1440,288L1440,0L1433.8,0C1427.7,0,1415,0,1403,0C1390.8,0,1378,0,1366,0C1353.8,0,1342,0,1329,0C1316.9,0,1305,0,1292,0C1280,0,1268,0,1255,0C1243.1,0,1231,0,1218,0C1206.2,0,1194,0,1182,0C1169.2,0,1157,0,1145,0C1132.3,0,1120,0,1108,0C1095.4,0,1083,0,1071,0C1058.5,0,1046,0,1034,0C1021.5,0,1009,0,997,0C984.6,0,972,0,960,0C947.7,0,935,0,923,0C910.8,0,898,0,886,0C873.8,0,862,0,849,0C836.9,0,825,0,812,0C800,0,788,0,775,0C763.1,0,751,0,738,0C726.2,0,714,0,702,0C689.2,0,677,0,665,0C652.3,0,640,0,628,0C615.4,0,603,0,591,0C578.5,0,566,0,554,0C541.5,0,529,0,517,0C504.6,0,492,0,480,0C467.7,0,455,0,443,0C430.8,0,418,0,406,0C393.8,0,382,0,369,0C356.9,0,345,0,332,0C320,0,308,0,295,0C283.1,0,271,0,258,0C246.2,0,234,0,222,0C209.2,0,197,0,185,0C172.3,0,160,0,148,0C135.4,0,123,0,111,0C98.5,0,86,0,74,0C61.5,0,49,0,37,0C24.6,0,12,0,6,0L0,0Z"></path></svg>